<?xml version="1.0" encoding="utf-8"?>
<!-- Generator: Adobe Illustrator 24.0.0, SVG Export Plug-In . SVG Version: 6.00 Build 0)  -->
<svg version="1.1" id="Capa_1" xmlns="http://www.w3.org/2000/svg" xmlns:xlink="http://www.w3.org/1999/xlink" x="0px" y="0px"
	 viewBox="0 0 385 385" style="enable-background:new 0 0 385 385;" xml:space="preserve">
<style type="text/css">
	.st0{fill:#FFFFFF;stroke:#FFFFFF;stroke-width:20;stroke-miterlimit:10;}
</style>
<g>
	<g id="Menu">
		<path class="st0" d="M23.3,91h338.4c6.2,0,11.3-5.1,11.3-11.3c0-6.2-5.1-11.3-11.3-11.3H23.3c-6.2,0-11.3,5.1-11.3,11.3
			S17.1,91,23.3,91z"/>
		<path class="st0" d="M361.7,181.2H23.3c-6.2,0-11.3,5.1-11.3,11.3s5.1,11.3,11.3,11.3h338.4c6.2,0,11.3-5.1,11.3-11.3
			S367.9,181.2,361.7,181.2z"/>
		<path class="st0" d="M361.7,294H23.3C17.1,294,12,299,12,305.3c0,6.2,5.1,11.3,11.3,11.3h338.4c6.2,0,11.3-5.1,11.3-11.3
			C372.9,299,367.9,294,361.7,294z"/>
	</g>
</g>
</svg>
